<?xml version="1.0" encoding="UTF-8"?><svg id="Lag_2" xmlns="http://www.w3.org/2000/svg" viewBox="0 0 391.17 91.45"><defs><style>.cls-1{fill:#fff;}.cls-1,.cls-2{stroke-width:0px;}.cls-2{fill:#6dfb6e;}</style></defs><g id="DESIGN"><polygon class="cls-2" points="82.97 52.26 79.2 58.79 94.28 84.92 86.74 84.92 71.66 58.79 79.2 45.73 67.88 26.13 49.03 58.79 26.4 58.79 30.17 52.26 45.26 52.26 64.11 19.6 52.8 0 30.17 39.19 37.71 39.19 52.8 13.06 56.57 19.6 41.49 45.73 26.4 45.73 15.09 65.32 52.8 65.32 64.11 84.92 56.57 84.92 49.03 71.85 11.31 71.85 0 91.45 45.26 91.45 41.49 84.92 11.31 84.92 15.09 78.39 45.26 78.39 52.8 91.45 75.43 91.45 56.57 58.79 67.88 39.19 71.66 45.73 64.11 58.79 82.97 91.45 105.6 91.45 82.97 52.26"/><path class="cls-1" d="M329.74,30.81h-6.84c-7.91,0-13.79,6.44-13.79,14.35v5.82c0,7.91,5.88,14.35,13.79,14.35h6.84c7.91,0,14.35-6.44,14.35-14.35v-5.82c0-7.91-6.44-14.35-14.35-14.35ZM338.9,50.98c0,5.05-4.11,9.16-9.16,9.16h-6.84c-5.05,0-9.16-4.11-9.16-9.16v-5.82c0-5.05,4.11-9.16,9.16-9.16h6.84c5.05,0,9.16,4.11,9.16,9.16v5.82Z"/><path class="cls-1" d="M231.91,35.99h6.84c3.41,0,6.39,1.87,7.96,4.64h5.65c-1.9-5.7-7.28-9.82-13.62-9.82h-6.84c-7.91,0-14.35,6.44-14.35,14.35v5.82c0,7.91,6.44,14.35,14.35,14.35h6.84c6.31,0,11.68-4.1,13.6-9.77h-5.66c-1.59,2.74-4.55,4.59-7.93,4.59h-6.84c-5.05,0-9.16-4.11-9.16-9.16v-5.82c0-5.05,4.11-9.16,9.16-9.16Z"/><path class="cls-1" d="M385.99,30.81v29.33h-1.43c-.87,0-1.68-.47-2.12-1.22l-14.02-24.29c-1.36-2.36-3.89-3.82-6.61-3.82h-6.61v34.52h5.18v-29.33h1.43c.87,0,1.68.47,2.12,1.22l14.02,24.29c1.36,2.35,3.88,3.82,6.6,3.82h6.62V30.81h-5.18Z"/><rect class="cls-1" x="264.1" y="30.81" width="5.18" height="34.52"/><polygon class="cls-1" points="292.82 46.84 277.02 46.84 274.03 52.02 292.82 52.02 292.82 65.32 298.01 65.32 298.01 30.81 292.82 30.81 292.82 46.84"/><polygon class="cls-1" points="137.78 30.81 117.85 65.32 123.84 65.32 140.37 36.69 156.89 65.32 162.88 65.32 142.95 30.81 137.78 30.81"/><path class="cls-1" d="M195.92,30.81h-22.03v34.52h4.96v-13.3h13.97l7.68,13.3h5.99l-7.88-13.65c4.53-1.19,7.88-5.32,7.88-10.22v-.08c0-5.83-4.74-10.57-10.57-10.57ZM201.3,41.46c0,2.97-2.42,5.38-5.38,5.38h-17.07v-10.85h17.07c2.97,0,5.38,2.42,5.38,5.38v.08Z"/></g></svg>