<?xml version="1.0" encoding="UTF-8"?><svg id="Lag_2" xmlns="http://www.w3.org/2000/svg" viewBox="0 0 7809.99 459.67"><defs><style>.cls-1{opacity:.15;}.cls-2{fill:#fff;stroke-width:0px;}</style></defs><g id="DESIGN"><g class="cls-1"><polygon class="cls-2" points="5876.45 262.67 5857.49 295.5 5933.32 426.83 5895.4 426.83 5819.58 295.5 5857.49 229.83 5800.62 131.33 5705.84 295.5 5592.1 295.5 5611.06 262.67 5686.88 262.67 5781.66 98.5 5724.8 0 5611.06 197 5648.97 197 5724.8 65.67 5743.75 98.5 5667.93 229.83 5592.1 229.83 5535.23 328.33 5724.8 328.33 5781.66 426.83 5743.75 426.83 5705.84 361.17 5516.28 361.17 5459.41 459.67 5686.88 459.67 5667.93 426.83 5516.28 426.83 5535.23 394 5686.88 394 5724.8 459.67 5838.53 459.67 5743.75 295.5 5800.62 197 5819.58 229.83 5781.66 295.5 5876.45 459.67 5990.18 459.67 5876.45 262.67"/><polygon class="cls-2" points="5573.14 197 5554.19 164.17 5630.01 32.83 5592.1 32.83 5516.28 164.17 5554.19 229.83 5497.32 328.33 5402.54 164.17 5288.8 164.17 5307.76 197 5383.58 197 5478.36 361.17 5421.49 459.67 5307.76 262.67 5345.67 262.67 5421.49 394 5440.45 361.17 5364.62 229.83 5288.8 229.83 5231.93 131.33 5421.49 131.33 5478.36 32.83 5440.45 32.83 5402.54 98.5 5212.97 98.5 5156.11 0 5383.58 0 5364.62 32.83 5212.97 32.83 5231.93 65.67 5383.58 65.67 5421.49 0 5535.23 0 5440.45 164.17 5497.32 262.67 5516.28 229.83 5478.36 164.17 5573.14 0 5686.88 0 5573.14 197"/><polygon class="cls-2" points="6179.75 197 6160.79 164.17 6236.62 32.83 6198.7 32.83 6122.88 164.17 6160.79 229.83 6103.92 328.33 6009.14 164.17 5895.4 164.17 5914.36 197 5990.18 197 6084.97 361.17 6028.1 459.67 5914.36 262.67 5952.27 262.67 6028.1 394 6047.05 361.17 5971.23 229.83 5895.4 229.83 5838.53 131.33 6028.1 131.33 6084.97 32.83 6047.05 32.83 6009.14 98.5 5819.58 98.5 5762.71 0 5990.18 0 5971.23 32.83 5819.58 32.83 5838.53 65.67 5990.18 65.67 6028.1 0 6141.83 0 6047.05 164.17 6103.92 262.67 6122.88 229.83 6084.97 164.17 6179.75 0 6293.49 0 6179.75 197"/><polygon class="cls-2" points="5269.85 262.67 5250.89 295.5 5326.71 426.83 5288.8 426.83 5212.98 295.5 5250.89 229.83 5194.02 131.33 5099.24 295.5 4985.5 295.5 5004.46 262.67 5080.28 262.67 5175.06 98.5 5118.19 0 5004.46 197 5042.37 197 5118.19 65.67 5137.15 98.5 5061.33 229.83 4985.5 229.83 4928.63 328.33 5118.19 328.33 5175.06 426.83 5137.15 426.83 5099.24 361.17 4909.68 361.17 4852.81 459.67 5080.28 459.67 5061.33 426.83 4909.68 426.83 4928.63 394 5080.28 394 5118.19 459.67 5231.93 459.67 5137.15 295.5 5194.02 197 5212.98 229.83 5175.06 295.5 5269.85 459.67 5383.58 459.67 5269.85 262.67"/><polygon class="cls-2" points="4966.54 197 4947.59 164.17 5023.41 32.83 4985.5 32.83 4909.67 164.17 4947.59 229.83 4890.72 328.33 4795.94 164.17 4682.2 164.17 4701.15 197 4776.98 197 4871.76 361.17 4814.89 459.67 4701.15 262.67 4739.07 262.67 4814.89 394 4833.85 361.17 4758.02 229.83 4682.2 229.83 4625.33 131.33 4814.89 131.33 4871.76 32.83 4833.85 32.83 4795.94 98.5 4606.37 98.5 4549.5 0 4776.98 0 4758.02 32.83 4606.37 32.83 4625.33 65.67 4776.98 65.67 4814.89 0 4928.63 0 4833.85 164.17 4890.72 262.67 4909.67 229.83 4871.76 164.17 4966.54 0 5080.28 0 4966.54 197"/><polygon class="cls-2" points="4663.24 262.67 4644.29 295.5 4720.11 426.83 4682.2 426.83 4606.38 295.5 4644.29 229.83 4587.42 131.33 4492.64 295.5 4378.9 295.5 4397.86 262.67 4473.68 262.67 4568.46 98.5 4511.59 0 4397.86 197 4435.77 197 4511.59 65.67 4530.55 98.5 4454.72 229.83 4378.9 229.83 4322.03 328.33 4511.59 328.33 4568.46 426.83 4530.55 426.83 4492.64 361.17 4303.07 361.17 4246.21 459.67 4473.68 459.67 4454.72 426.83 4303.07 426.83 4322.03 394 4473.68 394 4511.59 459.67 4625.33 459.67 4530.55 295.5 4587.42 197 4606.38 229.83 4568.46 295.5 4663.24 459.67 4776.98 459.67 4663.24 262.67"/><polygon class="cls-2" points="4359.94 197 4340.99 164.17 4416.81 32.83 4378.9 32.83 4303.07 164.17 4340.99 229.83 4284.12 328.33 4189.34 164.17 4075.6 164.17 4094.55 197 4170.38 197 4265.16 361.17 4208.29 459.67 4094.55 262.67 4132.47 262.67 4208.29 394 4227.25 361.17 4151.42 229.83 4075.6 229.83 4018.73 131.33 4208.29 131.33 4265.16 32.83 4227.25 32.83 4189.34 98.5 3999.77 98.5 3942.9 0 4170.38 0 4151.42 32.83 3999.77 32.83 4018.73 65.67 4170.38 65.67 4208.29 0 4322.03 0 4227.25 164.17 4284.12 262.67 4303.07 229.83 4265.16 164.17 4359.94 0 4473.68 0 4359.94 197"/><polygon class="cls-2" points="4056.64 262.67 4037.69 295.5 4113.51 426.83 4075.6 426.83 3999.77 295.5 4037.69 229.83 3980.82 131.33 3886.04 295.5 3772.3 295.5 3791.25 262.67 3867.08 262.67 3961.86 98.5 3904.99 0 3791.25 197 3829.17 197 3904.99 65.67 3923.95 98.5 3848.12 229.83 3772.3 229.83 3715.43 328.33 3904.99 328.33 3961.86 426.83 3923.95 426.83 3886.04 361.17 3696.47 361.17 3639.6 459.67 3867.08 459.67 3848.12 426.83 3696.47 426.83 3715.43 394 3867.08 394 3904.99 459.67 4018.73 459.67 3923.95 295.5 3980.82 197 3999.77 229.83 3961.86 295.5 4056.64 459.67 4170.38 459.67 4056.64 262.67"/><polygon class="cls-2" points="6483.05 262.67 6464.09 295.5 6539.92 426.83 6502 426.83 6426.18 295.5 6464.09 229.83 6407.22 131.33 6312.44 295.5 6198.7 295.5 6217.66 262.67 6293.48 262.67 6388.27 98.5 6331.4 0 6217.66 197 6255.57 197 6331.4 65.67 6350.35 98.5 6274.53 229.83 6198.7 229.83 6141.83 328.33 6331.4 328.33 6388.27 426.83 6350.35 426.83 6312.44 361.17 6122.88 361.17 6066.01 459.67 6293.48 459.67 6274.53 426.83 6122.88 426.83 6141.83 394 6293.48 394 6331.4 459.67 6445.14 459.67 6350.35 295.5 6407.22 197 6426.18 229.83 6388.27 295.5 6483.05 459.67 6596.79 459.67 6483.05 262.67"/><polygon class="cls-2" points="6786.35 197 6767.39 164.17 6843.22 32.83 6805.31 32.83 6729.48 164.17 6767.39 229.83 6710.52 328.33 6615.74 164.17 6502 164.17 6520.96 197 6596.79 197 6691.57 361.17 6634.7 459.67 6520.96 262.67 6558.87 262.67 6634.7 394 6653.65 361.17 6577.83 229.83 6502 229.83 6445.14 131.33 6634.7 131.33 6691.57 32.83 6653.65 32.83 6615.74 98.5 6426.18 98.5 6369.31 0 6596.79 0 6577.83 32.83 6426.18 32.83 6445.14 65.67 6596.79 65.67 6634.7 0 6748.44 0 6653.65 164.17 6710.52 262.67 6729.48 229.83 6691.57 164.17 6786.35 0 6900.09 0 6786.35 197"/><polygon class="cls-2" points="7089.65 262.67 7070.69 295.5 7146.52 426.83 7108.61 426.83 7032.78 295.5 7070.69 229.83 7013.82 131.33 6919.04 295.5 6805.3 295.5 6824.26 262.67 6900.09 262.67 6994.87 98.5 6938 0 6824.26 197 6862.17 197 6938 65.67 6956.95 98.5 6881.13 229.83 6805.3 229.83 6748.44 328.33 6938 328.33 6994.87 426.83 6956.95 426.83 6919.04 361.17 6729.48 361.17 6672.61 459.67 6900.09 459.67 6881.13 426.83 6729.48 426.83 6748.44 394 6900.09 394 6938 459.67 7051.74 459.67 6956.95 295.5 7013.82 197 7032.78 229.83 6994.87 295.5 7089.65 459.67 7203.39 459.67 7089.65 262.67"/><polygon class="cls-2" points="7392.95 197 7373.99 164.17 7449.82 32.83 7411.91 32.83 7336.08 164.17 7373.99 229.83 7317.12 328.33 7222.34 164.17 7108.61 164.17 7127.56 197 7203.39 197 7298.17 361.17 7241.3 459.67 7127.56 262.67 7165.47 262.67 7241.3 394 7260.26 361.17 7184.43 229.83 7108.61 229.83 7051.74 131.33 7241.3 131.33 7298.17 32.83 7260.26 32.83 7222.34 98.5 7032.78 98.5 6975.91 0 7203.39 0 7184.43 32.83 7032.78 32.83 7051.74 65.67 7203.39 65.67 7241.3 0 7355.04 0 7260.26 164.17 7317.12 262.67 7336.08 229.83 7298.17 164.17 7392.95 0 7506.69 0 7392.95 197"/><polygon class="cls-2" points="7696.25 262.67 7677.29 295.5 7753.12 426.83 7715.21 426.83 7639.38 295.5 7677.29 229.83 7620.42 131.33 7525.64 295.5 7411.91 295.5 7430.86 262.67 7506.69 262.67 7601.47 98.5 7544.6 0 7430.86 197 7468.77 197 7544.6 65.67 7563.56 98.5 7487.73 229.83 7411.91 229.83 7355.04 328.33 7544.6 328.33 7601.47 426.83 7563.56 426.83 7525.64 361.17 7336.08 361.17 7279.21 459.67 7506.69 459.67 7487.73 426.83 7336.08 426.83 7355.04 394 7506.69 394 7544.6 459.67 7658.34 459.67 7563.56 295.5 7620.42 197 7639.38 229.83 7601.47 295.5 7696.25 459.67 7809.99 459.67 7696.25 262.67"/><polygon class="cls-2" points="5554.19 164.17 5573.14 197 5648.97 197 5667.93 164.17 5554.19 164.17"/><polygon class="cls-2" points="5857.49 295.5 5876.45 262.67 5952.27 262.67 5971.23 295.5 5857.49 295.5"/><polygon class="cls-2" points="4947.59 164.17 4966.54 197 5042.37 197 5061.33 164.17 4947.59 164.17"/><polygon class="cls-2" points="5250.89 295.5 5269.85 262.67 5345.67 262.67 5364.63 295.5 5250.89 295.5"/><polygon class="cls-2" points="4340.99 164.17 4359.94 197 4435.77 197 4454.73 164.17 4340.99 164.17"/><polygon class="cls-2" points="4644.29 295.5 4663.25 262.67 4739.07 262.67 4758.03 295.5 4644.29 295.5"/><polygon class="cls-2" points="4037.69 295.5 4056.65 262.67 4132.47 262.67 4151.43 295.5 4037.69 295.5"/><polygon class="cls-2" points="6160.79 164.17 6179.74 197 6255.57 197 6274.53 164.17 6160.79 164.17"/><polygon class="cls-2" points="6464.09 295.5 6483.05 262.67 6558.87 262.67 6577.83 295.5 6464.09 295.5"/><polygon class="cls-2" points="6767.39 164.17 6786.35 197 6862.17 197 6881.13 164.17 6767.39 164.17"/><polygon class="cls-2" points="7070.69 295.5 7089.65 262.67 7165.47 262.67 7184.43 295.5 7070.69 295.5"/><polygon class="cls-2" points="7373.99 164.17 7392.95 197 7468.77 197 7487.73 164.17 7373.99 164.17"/><polygon class="cls-2" points="7677.29 295.5 7696.25 262.67 7772.07 262.67 7791.03 295.5 7677.29 295.5"/><polygon class="cls-2" points="2236.84 262.67 2217.89 295.5 2293.71 426.83 2255.8 426.83 2179.97 295.5 2217.89 229.83 2161.02 131.33 2066.24 295.5 1952.5 295.5 1971.45 262.67 2047.28 262.67 2142.06 98.5 2085.19 0 1971.45 197 2009.37 197 2085.19 65.67 2104.15 98.5 2028.32 229.83 1952.5 229.83 1895.63 328.33 2085.19 328.33 2142.06 426.83 2104.15 426.83 2066.24 361.17 1876.67 361.17 1819.8 459.67 2047.28 459.67 2028.32 426.83 1876.67 426.83 1895.63 394 2047.28 394 2085.19 459.67 2198.93 459.67 2104.15 295.5 2161.02 197 2179.97 229.83 2142.06 295.5 2236.84 459.67 2350.58 459.67 2236.84 262.67"/><polygon class="cls-2" points="1933.54 197 1914.58 164.17 1990.41 32.83 1952.5 32.83 1876.67 164.17 1914.58 229.83 1857.71 328.33 1762.93 164.17 1649.2 164.17 1668.15 197 1743.98 197 1838.76 361.17 1781.89 459.67 1668.15 262.67 1706.06 262.67 1781.89 394 1800.85 361.17 1725.02 229.83 1649.2 229.83 1592.33 131.33 1781.89 131.33 1838.76 32.83 1800.85 32.83 1762.93 98.5 1573.37 98.5 1516.5 0 1743.98 0 1725.02 32.83 1573.37 32.83 1592.33 65.67 1743.98 65.67 1781.89 0 1895.63 0 1800.85 164.17 1857.71 262.67 1876.67 229.83 1838.76 164.17 1933.54 0 2047.28 0 1933.54 197"/><polygon class="cls-2" points="2540.14 197 2521.19 164.17 2597.01 32.83 2559.1 32.83 2483.27 164.17 2521.19 229.83 2464.32 328.33 2369.54 164.17 2255.8 164.17 2274.75 197 2350.58 197 2445.36 361.17 2388.49 459.67 2274.75 262.67 2312.67 262.67 2388.49 394 2407.45 361.17 2331.62 229.83 2255.8 229.83 2198.93 131.33 2388.49 131.33 2445.36 32.83 2407.45 32.83 2369.54 98.5 2179.97 98.5 2123.1 0 2350.58 0 2331.62 32.83 2179.97 32.83 2198.93 65.67 2350.58 65.67 2388.49 0 2502.23 0 2407.45 164.17 2464.32 262.67 2483.27 229.83 2445.36 164.17 2540.14 0 2653.88 0 2540.14 197"/><polygon class="cls-2" points="1630.24 262.67 1611.28 295.5 1687.11 426.83 1649.2 426.83 1573.37 295.5 1611.28 229.83 1554.42 131.33 1459.63 295.5 1345.9 295.5 1364.85 262.67 1440.68 262.67 1535.46 98.5 1478.59 0 1364.85 197 1402.77 197 1478.59 65.67 1497.55 98.5 1421.72 229.83 1345.9 229.83 1289.03 328.33 1478.59 328.33 1535.46 426.83 1497.55 426.83 1459.63 361.17 1270.07 361.17 1213.2 459.67 1440.68 459.67 1421.72 426.83 1270.07 426.83 1289.03 394 1440.68 394 1478.59 459.67 1592.33 459.67 1497.55 295.5 1554.42 197 1573.37 229.83 1535.46 295.5 1630.24 459.67 1743.98 459.67 1630.24 262.67"/><polygon class="cls-2" points="1326.94 197 1307.98 164.17 1383.81 32.83 1345.9 32.83 1270.07 164.17 1307.98 229.83 1251.11 328.33 1156.33 164.17 1042.59 164.17 1061.55 197 1137.38 197 1232.16 361.17 1175.29 459.67 1061.55 262.67 1099.46 262.67 1175.29 394 1194.24 361.17 1118.42 229.83 1042.59 229.83 985.73 131.33 1175.29 131.33 1232.16 32.83 1194.24 32.83 1156.33 98.5 966.77 98.5 909.9 0 1137.38 0 1118.42 32.83 966.77 32.83 985.73 65.67 1137.38 65.67 1175.29 0 1289.03 0 1194.24 164.17 1251.11 262.67 1270.07 229.83 1232.16 164.17 1326.94 0 1440.68 0 1326.94 197"/><polygon class="cls-2" points="1023.64 262.67 1004.68 295.5 1080.51 426.83 1042.6 426.83 966.77 295.5 1004.68 229.83 947.81 131.33 853.03 295.5 739.3 295.5 758.25 262.67 834.08 262.67 928.86 98.5 871.99 0 758.25 197 796.16 197 871.99 65.67 890.95 98.5 815.12 229.83 739.3 229.83 682.43 328.33 871.99 328.33 928.86 426.83 890.95 426.83 853.03 361.17 663.47 361.17 606.6 459.67 834.08 459.67 815.12 426.83 663.47 426.83 682.43 394 834.08 394 871.99 459.67 985.73 459.67 890.95 295.5 947.81 197 966.77 229.83 928.86 295.5 1023.64 459.67 1137.38 459.67 1023.64 262.67"/><polygon class="cls-2" points="720.34 197 701.38 164.17 777.21 32.83 739.29 32.83 663.47 164.17 701.38 229.83 644.51 328.33 549.73 164.17 435.99 164.17 454.95 197 530.77 197 625.56 361.17 568.69 459.67 454.95 262.67 492.86 262.67 568.69 394 587.64 361.17 511.82 229.83 435.99 229.83 379.12 131.33 568.69 131.33 625.56 32.83 587.64 32.83 549.73 98.5 360.17 98.5 303.3 0 530.77 0 511.82 32.83 360.17 32.83 379.12 65.67 530.77 65.67 568.69 0 682.42 0 587.64 164.17 644.51 262.67 663.47 229.83 625.56 164.17 720.34 0 834.08 0 720.34 197"/><polygon class="cls-2" points="417.04 262.67 398.08 295.5 473.91 426.83 436 426.83 360.17 295.5 398.08 229.83 341.21 131.33 246.43 295.5 132.69 295.5 151.65 262.67 227.48 262.67 322.26 98.5 265.39 0 151.65 197 189.56 197 265.39 65.67 284.34 98.5 208.52 229.83 132.69 229.83 75.83 328.33 265.39 328.33 322.26 426.83 284.34 426.83 246.43 361.17 56.87 361.17 0 459.67 227.48 459.67 208.52 426.83 56.87 426.83 75.83 394 227.48 394 265.39 459.67 379.13 459.67 284.34 295.5 341.21 197 360.17 229.83 322.26 295.5 417.04 459.67 530.78 459.67 417.04 262.67"/><polygon class="cls-2" points="2843.44 262.67 2824.49 295.5 2900.31 426.83 2862.4 426.83 2786.57 295.5 2824.49 229.83 2767.62 131.33 2672.84 295.5 2559.1 295.5 2578.05 262.67 2653.88 262.67 2748.66 98.5 2691.79 0 2578.05 197 2615.97 197 2691.79 65.67 2710.75 98.5 2634.92 229.83 2559.1 229.83 2502.23 328.33 2691.79 328.33 2748.66 426.83 2710.75 426.83 2672.84 361.17 2483.27 361.17 2426.4 459.67 2653.88 459.67 2634.92 426.83 2483.27 426.83 2502.23 394 2653.88 394 2691.79 459.67 2805.53 459.67 2710.75 295.5 2767.62 197 2786.57 229.83 2748.66 295.5 2843.44 459.67 2957.18 459.67 2843.44 262.67"/><polygon class="cls-2" points="3146.74 197 3127.79 164.17 3203.61 32.83 3165.7 32.83 3089.88 164.17 3127.79 229.83 3070.92 328.33 2976.14 164.17 2862.4 164.17 2881.36 197 2957.18 197 3051.96 361.17 2995.09 459.67 2881.36 262.67 2919.27 262.67 2995.09 394 3014.05 361.17 2938.22 229.83 2862.4 229.83 2805.53 131.33 2995.09 131.33 3051.96 32.83 3014.05 32.83 2976.14 98.5 2786.57 98.5 2729.71 0 2957.18 0 2938.22 32.83 2786.57 32.83 2805.53 65.67 2957.18 65.67 2995.09 0 3108.83 0 3014.05 164.17 3070.92 262.67 3089.88 229.83 3051.96 164.17 3146.74 0 3260.48 0 3146.74 197"/><polygon class="cls-2" points="3450.04 262.67 3431.09 295.5 3506.91 426.83 3469 426.83 3393.18 295.5 3431.09 229.83 3374.22 131.33 3279.44 295.5 3165.7 295.5 3184.66 262.67 3260.48 262.67 3355.26 98.5 3298.39 0 3184.66 197 3222.57 197 3298.39 65.67 3317.35 98.5 3241.52 229.83 3165.7 229.83 3108.83 328.33 3298.39 328.33 3355.26 426.83 3317.35 426.83 3279.44 361.17 3089.87 361.17 3033.01 459.67 3260.48 459.67 3241.52 426.83 3089.87 426.83 3108.83 394 3260.48 394 3298.39 459.67 3412.13 459.67 3317.35 295.5 3374.22 197 3393.18 229.83 3355.26 295.5 3450.04 459.67 3563.78 459.67 3450.04 262.67"/><polygon class="cls-2" points="3753.35 197 3734.39 164.17 3810.21 32.83 3772.3 32.83 3696.48 164.17 3734.39 229.83 3677.52 328.33 3582.74 164.17 3469 164.17 3487.96 197 3563.78 197 3658.56 361.17 3601.69 459.67 3487.96 262.67 3525.87 262.67 3601.69 394 3620.65 361.17 3544.83 229.83 3469 229.83 3412.13 131.33 3601.69 131.33 3658.56 32.83 3620.65 32.83 3582.74 98.5 3393.18 98.5 3336.31 0 3563.78 0 3544.83 32.83 3393.18 32.83 3412.13 65.67 3563.78 65.67 3601.69 0 3715.43 0 3620.65 164.17 3677.52 262.67 3696.48 229.83 3658.56 164.17 3753.35 0 3867.08 0 3753.35 197"/><polygon class="cls-2" points="1914.58 164.17 1933.54 197 2009.37 197 2028.32 164.17 1914.58 164.17"/><polygon class="cls-2" points="2217.89 295.5 2236.84 262.67 2312.67 262.67 2331.62 295.5 2217.89 295.5"/><polygon class="cls-2" points="1307.98 164.17 1326.94 197 1402.77 197 1421.72 164.17 1307.98 164.17"/><polygon class="cls-2" points="1611.29 295.5 1630.24 262.67 1706.07 262.67 1725.02 295.5 1611.29 295.5"/><polygon class="cls-2" points="701.38 164.17 720.34 197 796.17 197 815.12 164.17 701.38 164.17"/><polygon class="cls-2" points="1004.68 295.5 1023.64 262.67 1099.47 262.67 1118.42 295.5 1004.68 295.5"/><polygon class="cls-2" points="94.78 164.17 113.74 197 189.57 197 208.52 164.17 94.78 164.17"/><polygon class="cls-2" points="398.08 295.5 417.04 262.67 492.87 262.67 511.82 295.5 398.08 295.5"/><polygon class="cls-2" points="2521.18 164.17 2540.14 197 2615.97 197 2634.92 164.17 2521.18 164.17"/><polygon class="cls-2" points="2824.49 295.5 2843.44 262.67 2919.27 262.67 2938.22 295.5 2824.49 295.5"/><polygon class="cls-2" points="3127.78 164.17 3146.74 197 3222.57 197 3241.52 164.17 3127.78 164.17"/><polygon class="cls-2" points="3431.09 295.5 3450.04 262.67 3525.87 262.67 3544.82 295.5 3431.09 295.5"/><polygon class="cls-2" points="3734.38 164.17 3753.34 197 3829.17 197 3848.12 164.17 3734.38 164.17"/></g></g></svg>